<?xml version="1.0" encoding="utf-8"?>
<!-- Generator: Adobe Illustrator 15.0.0, SVG Export Plug-In . SVG Version: 6.00 Build 0)  -->
<!DOCTYPE svg PUBLIC "-//W3C//DTD SVG 1.1//EN" "http://www.w3.org/Graphics/SVG/1.1/DTD/svg11.dtd">
<svg version="1.1" id="Layer_1" xmlns="http://www.w3.org/2000/svg" xmlns:xlink="http://www.w3.org/1999/xlink" x="0px" y="0px"
	 width="32px" height="32px" viewBox="0 0 32 32" enable-background="new 0 0 32 32" xml:space="preserve">
<path d="M4.259,23.467C1.909,23.467,0,25.383,0,27.719c0,2.348,1.909,4.244,4.259,4.244c2.358,0,4.265-1.896,4.265-4.244
	C8.524,25.383,6.617,23.467,4.259,23.467 M0.005,10.873v6.133c3.993,0,7.748,1.561,10.576,4.391
	c2.825,2.822,4.384,6.596,4.384,10.604h6.16C21.125,20.35,11.648,10.873,0.005,10.873 M0.012,0v6.136
	C14.255,6.136,25.848,17.74,25.848,32H32C32,14.36,17.648,0,0.012,0"/>
</svg>
