<?xml version="1.0" encoding="utf-8"?>
<!-- Generator: Adobe Illustrator 15.0.0, SVG Export Plug-In . SVG Version: 6.00 Build 0)  -->
<!DOCTYPE svg PUBLIC "-//W3C//DTD SVG 1.1//EN" "http://www.w3.org/Graphics/SVG/1.1/DTD/svg11.dtd">
<svg version="1.1" id="Layer_1" xmlns="http://www.w3.org/2000/svg" xmlns:xlink="http://www.w3.org/1999/xlink" x="0px" y="0px"
	 width="32px" height="32px" viewBox="0 0 32 32" enable-background="new 0 0 32 32" xml:space="preserve">
<path class="tweety" d="M32,6.076c-1.177,0.522-2.441,0.875-3.771,1.034c1.356-0.813,2.397-2.099,2.888-3.632c-1.269,0.752-2.675,1.298-4.169,1.593
	c-1.197-1.276-2.904-2.074-4.793-2.074c-3.625,0-6.564,2.94-6.564,6.565c0,0.515,0.057,1.016,0.17,1.497
	C10.303,10.784,5.466,8.171,2.228,4.199C1.663,5.169,1.339,6.297,1.339,7.5c0,2.278,1.159,4.287,2.92,5.463
	c-1.076-0.034-2.088-0.329-2.973-0.821c-0.001,0.027-0.001,0.056-0.001,0.082c0,3.182,2.263,5.835,5.267,6.438
	c-0.551,0.149-1.131,0.229-1.73,0.229c-0.423,0-0.834-0.041-1.235-0.116c0.835,2.607,3.26,4.506,6.133,4.559
	c-2.247,1.761-5.078,2.81-8.154,2.81c-0.53,0-1.052-0.03-1.566-0.092c2.905,1.863,6.356,2.95,10.063,2.95
	c12.078,0,18.68-10.004,18.68-18.679c0-0.285-0.007-0.568-0.019-0.85C30.007,8.549,31.12,7.392,32,6.076"/>
</svg>
